Coordinates
version=1
nRows=10
nColumns=28
inDegrees=yes

Units are S.I. units (second, meters, Newtons, ...)
Angles are in degrees.

endheader
time	pelvis_tilt	pelvis_list	pelvis_rotation	pelvis_tx	pelvis_ty	pelvis_tz	hip_flexion_r	hip_adduction_r	hip_rotation_r	knee_angle_r	ankle_angle_r	subtalar_angle_r	mtp_angle_r	hip_flexion_l	hip_adduction_l	hip_rotation_l	knee_angle_l	socket_flexion	socket_adduction	socket_rotation	socket_tx	socket_ty	socket_tz	foot_flex	lumbar_extension	lumbar_bending	lumbar_rotation
      0.00000000	      0.03517713	     -7.01769347	     -9.24967967	     -0.91029867	      0.98990079	      0.32001109	    -26.37897208	      8.08744989	      5.91626006	     -3.49427096	     12.45662543	     -1.40362963	      5.36938236	     23.81734680	     -9.28227942	      6.71165446	     -6.37914353	     -5.23390947	      0.00000000	      0.00000000	      0.00000000	      0.00000000	      0.00000000	     -0.47249450	    -11.73526850	      4.63791061	     12.43091837
      0.00416667	     -0.03713034	     -7.03499686	     -9.21111483	     -0.90473120	      0.98921891	      0.31971621	    -26.47887872	      8.09444721	      5.97502904	     -3.72159858	     12.39882563	     -1.41060940	      5.36804926	     23.65529732	     -9.19799081	      6.76219640	     -6.40913009	     -5.26268690	      0.00000000	      0.00000000	      0.00000000	      0.00000000	      0.00000000	     -0.56133372	    -11.59967411	      4.65224980	     12.43312240
      0.00833333	     -0.10153016	     -7.09884893	     -9.30954402	     -0.89937836	      0.98870793	      0.31957753	    -26.31487681	      8.10941527	      5.88790956	     -4.48306675	     12.13246481	     -1.63997280	      5.43634426	     23.40154825	     -9.23474822	      6.82871718	     -6.27758109	     -5.23475041	      0.00000000	      0.00000000	      0.00000000	      0.00000000	      0.00000000	     -0.99918874	    -11.60715878	      4.66775791	     12.50783213
      0.01250000	     -0.22676569	     -7.13068733	     -9.39596274	     -0.89362641	      0.98808314	      0.31937298	    -26.19638465	      8.09399002	      5.96541257	     -5.05795638	     11.97589889	     -1.81037345	      5.64971203	     23.19035233	     -9.23298158	      6.89481901	     -6.12800278	     -5.17180990	      0.00000000	      0.00000000	      0.00000000	      0.00000000	      0.00000000	     -1.26052398	    -11.48348988	      4.69660657	     12.64241531
      0.01666667	     -0.30555864	     -7.15007144	     -9.34248497	     -0.88741377	      0.98744058	      0.31911044	    -26.29224854	      8.11108276	      6.04922084	     -5.33024046	     11.90486813	     -1.81544127	      5.65097275	     22.99906177	     -9.14377776	      6.96550797	     -6.16646701	     -5.21226416	      0.00000000	      0.00000000	      0.00000000	      0.00000000	      0.00000000	     -1.38232087	    -11.32198218	      4.68140087	     12.63909630
      0.02083333	     -0.37915466	     -7.14142359	     -9.39752496	     -0.88156421	      0.98693573	      0.31895449	    -26.15716718	      8.07161007	      6.07186835	     -6.02002312	     11.62598212	     -1.95228514	      5.64211912	     22.77783406	     -9.09027715	      7.15562151	     -6.14974032	     -5.25970230	      0.00000000	      0.00000000	      0.00000000	      0.00000000	      0.00000000	     -1.89897772	    -11.30272540	      4.58397010	     12.62632226
      0.02500000	     -0.47093794	     -7.16370392	     -9.43240322	     -0.87543435	      0.98642879	      0.31869308	    -26.00780053	      8.05857878	      6.01375202	     -6.72843591	     11.35548649	     -2.15791928	      5.66265589	     22.55980833	     -9.04163420	      7.22879240	     -6.11986146	     -5.25688610	      0.00000000	      0.00000000	      0.00000000	      0.00000000	      0.00000000	     -2.23065078	    -11.20416299	      4.58764436	     12.64543387
      0.02916667	     -0.58001780	     -7.15151808	     -9.44700082	     -0.86918025	      0.98594247	      0.31846002	    -25.87793189	      8.03197313	      6.06227890	     -7.34810210	     11.12262203	     -2.30386200	      5.69277286	     22.35987555	     -8.96056077	      7.36601663	     -6.10267012	     -5.26604590	      0.00000000	      0.00000000	      0.00000000	      0.00000000	      0.00000000	     -2.48331439	    -11.08459802	      4.53620943	     12.66112513
      0.03333333	     -0.99278886	     -7.11818806	     -9.55546982	     -0.86275681	      0.98510455	      0.31832979	    -25.37434867	      8.00590411	      6.12953686	     -8.02750223	      9.94322339	     -3.05746303	      9.23255749	     22.45998978	     -8.92967794	      7.47251359	     -6.05905254	     -5.22245915	      0.00000000	      0.00000000	      0.00000000	      0.00000000	      0.00000000	     -2.74132777	    -10.57655295	      4.52437795	     12.79693073
      0.03750000	     -1.06894241	     -7.07012727	     -9.56682031	     -0.85634578	      0.98478106	      0.31808643	    -25.22820454	      7.93062005	      6.12143184	     -8.72026938	      9.64675500	     -3.21509113	      9.18193219	     22.22532032	     -8.80901791	      7.62002552	     -6.08181124	     -5.25025282	      0.00000000	      0.00000000	      0.00000000	      0.00000000	      0.00000000	     -3.00586293	    -10.46766302	      4.42980739	     12.76536267
